<?xml version="1.0" encoding="UTF-8"?>
<svg version="1.1" xmlns="http://www.w3.org/2000/svg" width="500" height="500">
<path d="M0 0 C165 0 330 0 500 0 C500 165 500 330 500 500 C335 500 170 500 0 500 C0 335 0 170 0 0 Z " fill="#FEFEFE" transform="translate(0,0)"/>
<path d="M0 0 C11.88 0 23.76 0 36 0 C38.67876684 10.16355652 41.34963543 20.3290013 44 30.5 C46.44980764 39.9001704 48.91509751 49.29615558 51.39111328 58.68945312 C52.42849577 62.62601603 53.46414739 66.56303431 54.5 70.5 C54.91665866 72.08333544 55.33332532 73.66666878 55.75 75.25 C56.58333333 78.41666667 57.41666667 81.58333333 58.25 84.75 C58.45616943 85.53342773 58.66233887 86.31685547 58.87475586 87.12402344 C59.29226836 88.71060355 59.70974873 90.29719212 60.12719727 91.88378906 C61.155662 95.79251595 62.18464745 99.7011041 63.21484375 103.609375 C64.24979907 107.5363243 65.28272038 111.46380441 66.31445312 115.39160156 C66.79958395 117.23744834 67.28532089 119.08313587 67.77148438 120.92871094 C68.57852238 123.99369668 69.38320679 127.05929296 70.1875 130.125 C70.56249634 131.5466748 70.56249634 131.5466748 70.94506836 132.99707031 C71.18362549 133.90811523 71.42218262 134.81916016 71.66796875 135.7578125 C71.87703857 136.5533252 72.0861084 137.34883789 72.30151367 138.16845703 C73.27032525 142.09585191 74.12248945 146.05120251 75 150 C66.09 150 57.18 150 48 150 C47.2575 147.23625 46.515 144.4725 45.75 141.625 C45.52538086 140.79693848 45.30076172 139.96887695 45.06933594 139.11572266 C42.76778579 130.45321047 40.95115938 121.78021721 39 113 C24.81 113 10.62 113 -4 113 C-6.59059255 124.42782793 -6.59059255 124.42782793 -9.17553711 135.85693359 C-9.50093429 137.28748155 -9.82652333 138.71798588 -10.15234375 140.1484375 C-10.40377136 141.26665894 -10.40377136 141.26665894 -10.66027832 142.4074707 C-11.8859282 147.7718564 -11.8859282 147.7718564 -13 150 C-21.58 150 -30.16 150 -39 150 C-37.87619361 139.88574251 -37.87619361 139.88574251 -36.765625 136.23046875 C-36.52384521 135.41481445 -36.28206543 134.59916016 -36.03295898 133.75878906 C-35.77458252 132.91026367 -35.51620605 132.06173828 -35.25 131.1875 C-33.14718592 124.07572842 -31.18904093 116.95640005 -29.4375 109.75 C-27.96050997 103.69827247 -26.37110689 97.71101336 -24.5625 91.75 C-22.48906262 84.9049511 -20.71022842 78.00676719 -19 71.0625 C-17.09926044 63.34525678 -15.12531075 55.66371921 -12.96704102 48.01464844 C-11.07199485 41.29441332 -9.24959134 34.55554742 -7.4375 27.8125 C-7.01609741 26.24556396 -7.01609741 26.24556396 -6.58618164 24.64697266 C-4.38006678 16.4341475 -2.19116094 8.21685351 0 0 Z " fill="#202020" transform="translate(170,167)"/>
<path d="M0 0 C26.07 0 52.14 0 79 0 C79.08021762 27.55029548 79.08021762 27.55029548 79.09765625 39.32421875 C79.1095962 47.34752257 79.12369799 55.37077446 79.15087891 63.39404297 C79.17266288 69.86498134 79.18458038 76.33587058 79.18975449 82.8068428 C79.19344026 85.27148842 79.20063761 87.73613146 79.21146011 90.20075607 C79.22604869 93.66172783 79.22797484 97.12249837 79.22705078 100.58349609 C79.23424133 101.59482605 79.24143188 102.60615601 79.24884033 103.64813232 C79.21088632 116.8473707 76.01153462 129.56773248 66.75 139.48046875 C52.41274573 151.92955784 35.10622263 153.20119011 17 152 C12.62169075 151.21815906 8.96262313 149.99681478 5 148 C4.12472656 147.56429687 3.24945312 147.12859375 2.34765625 146.6796875 C-8.71420437 140.59150556 -15.83651912 131.91117572 -20 120 C-20.33 116.37 -20.66 112.74 -21 109 C-12.42 109 -3.84 109 5 109 C6.32 112.63 7.64 116.26 9 120 C14.0265681 125.30582189 18.17723545 127.64187609 25.5859375 128.3359375 C34.57262693 128.42858378 40.75058747 128.13456354 47.3125 121.75 C51.28743129 115.2723342 52.44598845 109.55079881 52.43237305 102.10546875 C52.4425647 101.2557399 52.45275635 100.40601105 52.46325684 99.53053284 C52.49321328 96.74945331 52.50262605 93.96871918 52.51171875 91.1875 C52.52857832 89.24836091 52.54673028 87.30923266 52.56611633 85.37011719 C52.61348361 80.28704212 52.64337872 75.20401104 52.66955566 70.12078857 C52.70468819 64.0107167 52.76166304 57.90081364 52.81494904 51.7908783 C52.89330722 42.52727403 52.94403067 33.26388841 53 24 C35.51 24 18.02 24 0 24 C0 16.08 0 8.16 0 0 Z " fill="#1F1F1F" transform="translate(28,167)"/>
<path d="M0 0 C35.97 0 71.94 0 109 0 C109 7.92 109 15.84 109 24 C95.14 24 81.28 24 67 24 C67 65.58 67 107.16 67 150 C58.42 150 49.84 150 41 150 C41 108.42 41 66.84 41 24 C27.47 24 13.94 24 0 24 C0 16.08 0 8.16 0 0 Z " fill="#1F1F1F" transform="translate(383,167)"/>
<path d="M0 0 C35.97 0 71.94 0 109 0 C109 7.92 109 15.84 109 24 C95.14 24 81.28 24 67 24 C67 65.58 67 107.16 67 150 C58.42 150 49.84 150 41 150 C41 108.42 41 66.84 41 24 C27.47 24 13.94 24 0 24 C0 16.08 0 8.16 0 0 Z " fill="#202020" transform="translate(258,167)"/>
<path d="M0 0 C1.59649859 2.90348103 2.42194051 5.47924729 3.0078125 8.734375 C3.18594482 9.68538086 3.36407715 10.63638672 3.54760742 11.61621094 C3.83341675 13.16743652 3.83341675 13.16743652 4.125 14.75 C6.37481596 26.54201784 9.193201 38.13739132 12.23291016 49.74511719 C12.56210449 51.02032227 12.89129883 52.29552734 13.23046875 53.609375 C13.52332764 54.72280273 13.81618652 55.83623047 14.11791992 56.98339844 C15.35191759 62.60247667 16.12521791 68.31391639 17 74 C6.11 74 -4.78 74 -16 74 C-15.39131097 69.73917676 -14.80809513 65.85182703 -13.80078125 61.7265625 C-13.56399658 60.74945313 -13.32721191 59.77234375 -13.08325195 58.765625 C-12.82890381 57.72921875 -12.57455566 56.6928125 -12.3125 55.625 C-12.04848389 54.53445312 -11.78446777 53.44390625 -11.51245117 52.3203125 C-10.14562327 46.67663602 -8.76313765 41.03690438 -7.375 35.3984375 C-4.49835248 23.65086707 -1.87410632 11.95153768 0 0 Z " fill="#FAFAFA" transform="translate(187,185)"/>
<path d="M0 0 C1.34633968 0.6399935 2.67869164 1.30980696 4 2 C6.22741958 2.30702164 6.22741958 2.30702164 8.61907959 2.2784729 C9.54172104 2.28963638 10.46436249 2.30079987 11.41496277 2.31230164 C12.92223686 2.31554192 12.92223686 2.31554192 14.45996094 2.31884766 C16.05554588 2.33391609 16.05554588 2.33391609 17.68336487 2.34928894 C21.20036273 2.38018689 24.71728425 2.39717466 28.234375 2.4140625 C30.67247172 2.4327688 33.11056193 2.45234181 35.54864502 2.4727478 C41.96669685 2.52413167 48.38476968 2.56372403 54.80291748 2.60089111 C61.3517377 2.64089148 67.90047007 2.69200193 74.44921875 2.7421875 C87.2994164 2.83902089 100.1496644 2.92377924 113 3 C113 3.99 113 4.98 113 6 C112.16924344 6.00496522 112.16924344 6.00496522 111.32170391 6.01003075 C97.85140628 6.09121814 84.38122296 6.18342232 70.91108227 6.28752708 C64.39704213 6.33753689 57.88301858 6.38386653 51.36889648 6.421875 C45.0859424 6.45866857 38.80312558 6.50501236 32.52028847 6.55806351 C30.11966668 6.57663901 27.71901543 6.59173521 25.31834984 6.60334396 C21.96363554 6.62015234 18.60923777 6.64917447 15.25463867 6.68115234 C13.75599777 6.68439262 13.75599777 6.68439262 12.2270813 6.68769836 C11.31422867 6.69886185 10.40137604 6.71002533 9.46086121 6.7215271 C8.66719745 6.72705786 7.87353369 6.73258862 7.05581951 6.73828697 C4.69127745 6.88429296 4.69127745 6.88429296 2 9 C-1.83460949 8.58914898 -5.50733128 6.54483424 -9 5 C-6.02980547 3.01987031 -3.30702837 1.3498075 0 0 Z " fill="#C7B283" transform="translate(115,369)"/>
<path d="M0 0 C1.34633968 0.6399935 2.67869164 1.30980696 4 2 C6.22741958 2.30702164 6.22741958 2.30702164 8.61907959 2.2784729 C9.54172104 2.28963638 10.46436249 2.30079987 11.41496277 2.31230164 C12.92223686 2.31554192 12.92223686 2.31554192 14.45996094 2.31884766 C16.05554588 2.33391609 16.05554588 2.33391609 17.68336487 2.34928894 C21.20036273 2.38018689 24.71728425 2.39717466 28.234375 2.4140625 C30.67247172 2.4327688 33.11056193 2.45234181 35.54864502 2.4727478 C41.96669685 2.52413167 48.38476968 2.56372403 54.80291748 2.60089111 C61.3517377 2.64089148 67.90047007 2.69200193 74.44921875 2.7421875 C87.2994164 2.83902089 100.1496644 2.92377924 113 3 C113 3.99 113 4.98 113 6 C112.16924344 6.00496522 112.16924344 6.00496522 111.32170391 6.01003075 C97.85140628 6.09121814 84.38122296 6.18342232 70.91108227 6.28752708 C64.39704213 6.33753689 57.88301858 6.38386653 51.36889648 6.421875 C45.0859424 6.45866857 38.80312558 6.50501236 32.52028847 6.55806351 C30.11966668 6.57663901 27.71901543 6.59173521 25.31834984 6.60334396 C21.96363554 6.62015234 18.60923777 6.64917447 15.25463867 6.68115234 C13.75599777 6.68439262 13.75599777 6.68439262 12.2270813 6.68769836 C11.31422867 6.69886185 10.40137604 6.71002533 9.46086121 6.7215271 C8.66719745 6.72705786 7.87353369 6.73258862 7.05581951 6.73828697 C4.69127745 6.88429296 4.69127745 6.88429296 2 9 C-1.83460949 8.58914898 -5.50733128 6.54483424 -9 5 C-6.02980547 3.01987031 -3.30702837 1.3498075 0 0 Z " fill="#C7B283" transform="translate(115,102)"/>
<path d="M0 0 C0.98397585 2.5607445 1.96229967 5.12341492 2.9375 7.6875 C3.35418945 8.7693457 3.35418945 8.7693457 3.77929688 9.87304688 C7.54022523 19.79646025 7.54022523 19.79646025 6.07421875 23.0625 C5.61660156 23.701875 5.15898437 24.34125 4.6875 25 C2.69374984 27.9241669 1.15886282 30.6287627 0 34 C-0.26296875 33.43023437 -0.5259375 32.86046875 -0.796875 32.2734375 C-2.0784608 29.85173967 -3.60623198 27.81413031 -5.25 25.625 C-8.05379943 21.41246232 -8.05379943 21.41246232 -7.625 18.125 C-7.08875 17.09375 -6.5525 16.0625 -6 15 C-5.27354062 13.04831808 -4.56652492 11.08933165 -3.875 9.125 C-3.25078415 7.41637998 -2.62604585 5.70795034 -2 4 C-3.84123748 6.30768431 -4.93563167 7.69961448 -5.5625 10.625 C-7 13 -7 13 -9.34765625 13.76171875 C-11.89441244 14.26677167 -14.42367556 14.68152447 -17 15 C-16.4083145 11.43628505 -15.63514636 8.23474606 -14 5 C-11.17989778 2.99080629 -8.29464085 1.99401878 -5 1 C-3 0 -3 0 0 0 Z " fill="#C2AB79" transform="translate(250,366)"/>
<path d="M0 0 C3.33333333 1.33333333 6.66666667 2.66666667 10 4 C7.45287926 6.00130916 5.0472625 7.85727656 2 9 C-0.0625 8.6875 -0.0625 8.6875 -2 8 C-4.78809895 7.07063368 -6.50190768 6.86566467 -9.38493347 6.84178162 C-10.28095779 6.8319928 -11.17698212 6.82220398 -12.10015869 6.81211853 C-13.57074738 6.80348534 -13.57074738 6.80348534 -15.07104492 6.79467773 C-16.10536148 6.78477814 -17.13967804 6.77487854 -18.20533752 6.76467896 C-21.63035784 6.73304538 -25.05539203 6.70829909 -28.48046875 6.68359375 C-30.85273096 6.66302583 -33.22498949 6.64202941 -35.59724426 6.62062073 C-41.8459882 6.56538332 -48.0947653 6.51598135 -54.34356689 6.46777344 C-60.71800697 6.41757064 -67.09239879 6.36187819 -73.46679688 6.30664062 C-85.9778231 6.19903861 -98.4888905 6.09741179 -111 6 C-111 5.34 -111 4.68 -111 4 C-109.0931971 3.9845388 -109.0931971 3.9845388 -107.14787292 3.96876526 C-95.1845323 3.87112895 -83.22124483 3.76840417 -71.25799084 3.66066074 C-65.10715226 3.60542962 -58.95630893 3.55200924 -52.80541992 3.50268555 C-46.87263593 3.45504489 -40.93991057 3.40270208 -35.00719643 3.34705925 C-32.74053718 3.32663436 -30.47386186 3.30792151 -28.2071743 3.29092598 C-25.03934272 3.26688505 -21.87162228 3.23682988 -18.70385742 3.20532227 C-17.76086792 3.1995668 -16.81787842 3.19381134 -15.84631348 3.18788147 C-14.98394577 3.17809265 -14.12157806 3.16830383 -13.233078 3.15821838 C-12.10895146 3.14853956 -12.10895146 3.14853956 -10.96211529 3.1386652 C-8.78527639 3.06651611 -8.78527639 3.06651611 -6 2 C-5.13375 1.835 -4.2675 1.67 -3.375 1.5 C-1.05538548 1.23747474 -1.05538548 1.23747474 0 0 Z " fill="#C7B283" transform="translate(383,369)"/>
<path d="M0 0 C3.33333333 1.33333333 6.66666667 2.66666667 10 4 C7.45287926 6.00130916 5.0472625 7.85727656 2 9 C-0.0625 8.6875 -0.0625 8.6875 -2 8 C-4.78809895 7.07063368 -6.50190768 6.86566467 -9.38493347 6.84178162 C-10.28095779 6.8319928 -11.17698212 6.82220398 -12.10015869 6.81211853 C-13.57074738 6.80348534 -13.57074738 6.80348534 -15.07104492 6.79467773 C-16.10536148 6.78477814 -17.13967804 6.77487854 -18.20533752 6.76467896 C-21.63035784 6.73304538 -25.05539203 6.70829909 -28.48046875 6.68359375 C-30.85273096 6.66302583 -33.22498949 6.64202941 -35.59724426 6.62062073 C-41.8459882 6.56538332 -48.0947653 6.51598135 -54.34356689 6.46777344 C-60.71800697 6.41757064 -67.09239879 6.36187819 -73.46679688 6.30664062 C-85.9778231 6.19903861 -98.4888905 6.09741179 -111 6 C-111 5.34 -111 4.68 -111 4 C-109.0931971 3.9845388 -109.0931971 3.9845388 -107.14787292 3.96876526 C-95.1845323 3.87112895 -83.22124483 3.76840417 -71.25799084 3.66066074 C-65.10715226 3.60542962 -58.95630893 3.55200924 -52.80541992 3.50268555 C-46.87263593 3.45504489 -40.93991057 3.40270208 -35.00719643 3.34705925 C-32.74053718 3.32663436 -30.47386186 3.30792151 -28.2071743 3.29092598 C-25.03934272 3.26688505 -21.87162228 3.23682988 -18.70385742 3.20532227 C-17.76086792 3.1995668 -16.81787842 3.19381134 -15.84631348 3.18788147 C-14.98394577 3.17809265 -14.12157806 3.16830383 -13.233078 3.15821838 C-12.10895146 3.14853956 -12.10895146 3.14853956 -10.96211529 3.1386652 C-8.78527639 3.06651611 -8.78527639 3.06651611 -6 2 C-5.13375 1.835 -4.2675 1.67 -3.375 1.5 C-1.05538548 1.23747474 -1.05538548 1.23747474 0 0 Z " fill="#C8B487" transform="translate(383,102)"/>
<path d="M0 0 C2.75908759 1.37954379 3.21482985 3.06486205 4.5625 5.8125 C4.99691406 6.68519531 5.43132812 7.55789062 5.87890625 8.45703125 C8.32454482 14.00445533 8.32454482 14.00445533 7.07421875 17.83984375 C6.61660156 18.86207031 6.15898437 19.88429688 5.6875 20.9375 C5.01267578 22.46697266 5.01267578 22.46697266 4.32421875 24.02734375 C3.88722656 25.00832031 3.45023438 25.98929688 3 27 C2.3251696 28.66337794 1.65550907 30.3289135 1 32 C-0.70189768 28.71494168 -2.14432232 25.35382654 -3.5625 21.9375 C-3.99691406 20.89464844 -4.43132812 19.85179687 -4.87890625 18.77734375 C-5.64679605 16.87501048 -6.35126842 14.94619474 -7 13 C-5.8203125 10.625 -5.8203125 10.625 -4.125 8 C-2.38155573 5.27536152 -1.02602198 3.07806593 0 0 Z " fill="#C0A975" transform="translate(249,81)"/>
<path d="M0 0 C1.34633968 0.6399935 2.67869164 1.30980696 4 2 C6.22741958 2.30702164 6.22741958 2.30702164 8.61907959 2.2784729 C9.54172104 2.28963638 10.46436249 2.30079987 11.41496277 2.31230164 C12.92223686 2.31554192 12.92223686 2.31554192 14.45996094 2.31884766 C16.05554588 2.33391609 16.05554588 2.33391609 17.68336487 2.34928894 C21.20036273 2.38018689 24.71728425 2.39717466 28.234375 2.4140625 C30.67247172 2.4327688 33.11056193 2.45234181 35.54864502 2.4727478 C41.96669685 2.52413167 48.38476968 2.56372403 54.80291748 2.60089111 C61.3517377 2.64089148 67.90047007 2.69200193 74.44921875 2.7421875 C87.2994164 2.83902089 100.1496644 2.92377924 113 3 C113 3.33 113 3.66 113 4 C79.34 4 45.68 4 11 4 C11 4.99 11 5.98 11 7 C10.071875 6.95875 9.14375 6.9175 8.1875 6.875 C4.84190281 6.72863661 4.84190281 6.72863661 2 9 C-1.83460949 8.58914898 -5.50733128 6.54483424 -9 5 C-6.02980547 3.01987031 -3.30702837 1.3498075 0 0 Z " fill="#EFE9DC" transform="translate(115,369)"/>
<path d="M0 0 C1.34633968 0.6399935 2.67869164 1.30980696 4 2 C6.22741958 2.30702164 6.22741958 2.30702164 8.61907959 2.2784729 C9.54172104 2.28963638 10.46436249 2.30079987 11.41496277 2.31230164 C12.92223686 2.31554192 12.92223686 2.31554192 14.45996094 2.31884766 C16.05554588 2.33391609 16.05554588 2.33391609 17.68336487 2.34928894 C21.20036273 2.38018689 24.71728425 2.39717466 28.234375 2.4140625 C30.67247172 2.4327688 33.11056193 2.45234181 35.54864502 2.4727478 C41.96669685 2.52413167 48.38476968 2.56372403 54.80291748 2.60089111 C61.3517377 2.64089148 67.90047007 2.69200193 74.44921875 2.7421875 C87.2994164 2.83902089 100.1496644 2.92377924 113 3 C113 3.33 113 3.66 113 4 C79.34 4 45.68 4 11 4 C11 4.99 11 5.98 11 7 C10.071875 6.95875 9.14375 6.9175 8.1875 6.875 C4.84190281 6.72863661 4.84190281 6.72863661 2 9 C-1.83460949 8.58914898 -5.50733128 6.54483424 -9 5 C-6.02980547 3.01987031 -3.30702837 1.3498075 0 0 Z " fill="#EFE9DC" transform="translate(115,102)"/>
<path d="M0 0 C11.94529148 3.23766816 11.94529148 3.23766816 14.53125 7.55859375 C15.23996208 10.05680382 15.74429103 12.41784083 16 15 C12.13866931 14.79361853 8.62937071 14.37539553 5 13 C1.98078449 9.19995289 1.12164461 4.63472017 0 0 Z " fill="#C3AD7B" transform="translate(251,366)"/>
<path d="M0 0 C-0.09381826 3.31250634 -0.51190777 6.01883864 -2 9 C-5.42141059 11.37849227 -8.97781107 12.91996779 -13 14 C-13.66 13.67 -14.32 13.34 -15 13 C-13.60523393 9.15635893 -12.12436887 5.50176514 -10 2 C-6.30302269 0.27899332 -4.01621932 0 0 0 Z " fill="#C2AB79" transform="translate(266,100)"/>
<path d="M0 0 C4.77402641 0.72305643 8.76250375 1.39178828 11.8125 5.35546875 C13.10020253 7.8906331 14.2254148 10.26313228 15 13 C14.67 13.66 14.34 14.32 14 15 C10.00950417 14.15312058 6.49434626 13.13886976 3 11 C1.16319197 7.43412966 0.47166659 3.96473369 0 0 Z " fill="#C2AB78" transform="translate(233,99)"/>
<path d="M0 0 C0.66 0.391875 1.32 0.78375 2 1.1875 C5.16695956 1.35474737 5.16695956 1.35474737 8 1.1875 C8 1.8475 8 2.5075 8 3.1875 C7.01 3.6825 7.01 3.6825 6 4.1875 C6.66 4.8475 7.32 5.5075 8 6.1875 C6.39125 6.4040625 6.39125 6.4040625 4.75 6.625 C1.2575129 7.03895366 1.2575129 7.03895366 -0.96875 7.84375 C-3.66814941 8.30057144 -4.87870757 7.55421083 -7.25 6.25 C-7.95640625 5.86972656 -8.6628125 5.48945313 -9.390625 5.09765625 C-9.92171875 4.79730469 -10.4528125 4.49695313 -11 4.1875 C-2.93203883 -1.19114078 -2.93203883 -1.19114078 0 0 Z " fill="#C5AF80" transform="translate(117,369.8125)"/>
<path d="M0 0 C0.66 0.391875 1.32 0.78375 2 1.1875 C5.16695956 1.35474737 5.16695956 1.35474737 8 1.1875 C8 1.8475 8 2.5075 8 3.1875 C7.01 3.6825 7.01 3.6825 6 4.1875 C6.66 4.8475 7.32 5.5075 8 6.1875 C6.39125 6.4040625 6.39125 6.4040625 4.75 6.625 C1.2575129 7.03895366 1.2575129 7.03895366 -0.96875 7.84375 C-3.66814941 8.30057144 -4.87870757 7.55421083 -7.25 6.25 C-7.95640625 5.86972656 -8.6628125 5.48945312 -9.390625 5.09765625 C-9.92171875 4.79730469 -10.4528125 4.49695313 -11 4.1875 C-2.93203883 -1.19114078 -2.93203883 -1.19114078 0 0 Z " fill="#C5AF80" transform="translate(117,102.8125)"/>
<path d="M0 0 C2.375 0.75 2.375 0.75 5 2 C5.928125 2.37125 6.85625 2.7425 7.8125 3.125 C8.534375 3.41375 9.25625 3.7025 10 4 C7.45287926 6.00130916 5.0472625 7.85727656 2 9 C-0.0625 8.6875 -0.0625 8.6875 -2 8 C-2.99 7.67 -3.98 7.34 -5 7 C-5.99 6.67 -6.98 6.34 -8 6 C-7.360625 5.896875 -6.72125 5.79375 -6.0625 5.6875 C-5.381875 5.460625 -4.70125 5.23375 -4 5 C-3.67 4.01 -3.34 3.02 -3 2 C-2.01 1.34 -1.02 0.68 0 0 Z " fill="#C2AC7A" transform="translate(383,102)"/>
<path d="M0 0 C2.375 0.75 2.375 0.75 5 2 C5.928125 2.37125 6.85625 2.7425 7.8125 3.125 C8.534375 3.41375 9.25625 3.7025 10 4 C3.42325581 9.16744186 3.42325581 9.16744186 -0.125 8.75 C-2 8 -2 8 -4 6 C-3.8125 4 -3.8125 4 -3 2 C-2.01 1.34 -1.02 0.68 0 0 Z " fill="#C2AB79" transform="translate(383,369)"/>
<path d="M0 0 C2 3 2 3 3.5 6.5625 C4.74653251 9.99005769 4.74653251 9.99005769 7 12 C6.67 12.66 6.34 13.32 6 14 C5.01 14 4.02 14 3 14 C-1.07877462 5.96498906 -1.07877462 5.96498906 -0.75 1.9375 C-0.5025 1.298125 -0.255 0.65875 0 0 Z " fill="#EEE8DB" transform="translate(245,101)"/>
<path d="M0 0 C0.66 0 1.32 0 2 0 C2.83790789 1.78953185 3.67019396 3.58169695 4.5 5.375 C4.9640625 6.37273437 5.428125 7.37046875 5.90625 8.3984375 C7 11 7 11 7 13 C6.01 13 5.02 13 4 13 C2.68 8.71 1.36 4.42 0 0 Z " fill="#F5F1E9" transform="translate(249,365)"/>
<path d="M0 0 C1.98 0.495 1.98 0.495 4 1 C3.67 2.32 3.34 3.64 3 5 C1.68 5 0.36 5 -1 5 C-0.67 3.35 -0.34 1.7 0 0 Z " fill="#D8CAAB" transform="translate(375,371)"/>
<path d="M0 0 C1.25541557 3.76624671 0.37061958 5.37188934 -1 9 C-1.99 9 -2.98 9 -4 9 C-2.94124926 5.59687262 -1.99097846 2.98646769 0 0 Z " fill="#F6F3EB" transform="translate(248,367)"/>
<path d="M0 0 C0.33 0.99 0.66 1.98 1 3 C-0.4375 5.6875 -0.4375 5.6875 -2 8 C-2.93423645 4.98968256 -3.04449911 4.13349732 -2 1 C-1.34 0.67 -0.68 0.34 0 0 Z " fill="#F8F5EF" transform="translate(254,104)"/>
</svg>
