<?xml version="1.0" encoding="UTF-8"?>
<svg version="1.1" xmlns="http://www.w3.org/2000/svg" width="500" height="500">
<path d="M0 0 C165 0 330 0 500 0 C500 165 500 330 500 500 C335 500 170 500 0 500 C0 335 0 170 0 0 Z " fill="#1E1E1E" transform="translate(0,0)"/>
<path d="M0 0 C11.88 0 23.76 0 36 0 C40.30116873 16.12938275 40.30116873 16.12938275 41.87451172 22.15600586 C43.4589754 28.22520261 45.06807618 34.28408613 46.77587891 40.31982422 C49.54975547 50.12447185 52.02641403 59.99489783 54.47949219 69.88427734 C56.26876958 77.09332103 58.10185447 84.28339224 60.04296875 91.453125 C60.97924441 94.92307725 61.89207218 98.39843115 62.80053711 101.87573242 C64.6670135 109.01613137 66.57685179 116.14177745 68.5625 123.25 C70.15978726 128.97539024 71.75618109 134.70081164 73.3125 140.4375 C73.63863281 141.63246094 73.96476562 142.82742188 74.30078125 144.05859375 C75 147 75 147 75 150 C66.09 150 57.18 150 48 150 C44.62188862 137.73870683 41.77562488 125.41321125 39 113 C24.81 113 10.62 113 -4 113 C-6.2170615 122.93111938 -6.2170615 122.93111938 -8.42724609 132.86376953 C-8.70648926 134.10755371 -8.98573242 135.35133789 -9.2734375 136.6328125 C-9.55622559 137.90012207 -9.83901367 139.16743164 -10.13037109 140.47314453 C-10.92436446 143.6932535 -11.95121369 146.85364107 -13 150 C-21.91 150 -30.82 150 -40 150 C-37.87626569 140.71849451 -35.648604 131.51264643 -33.06323242 122.35009766 C-31.20030445 115.74662738 -29.40409545 109.12652867 -27.625 102.5 C-27.32875732 101.3972876 -27.03251465 100.2945752 -26.72729492 99.15844727 C-26.12040342 96.89865451 -25.51371545 94.63880709 -24.90722656 92.37890625 C-23.44111587 86.91847246 -21.97037862 81.45928575 -20.5 76 C-19.91664331 73.83333962 -19.33331 71.66667295 -18.75 69.5 C-17.58333333 65.16666667 -16.41666667 60.83333333 -15.25 56.5 C-14.96092773 55.4262915 -14.67185547 54.35258301 -14.37402344 53.24633789 C-13.79396869 51.09187196 -13.21389077 48.93741227 -12.63378906 46.78295898 C-11.12509795 41.17967341 -9.61687723 35.5762618 -8.109375 29.97265625 C-7.79806641 28.81572266 -7.48675781 27.65878906 -7.16601562 26.46679688 C-6.57602071 24.27412921 -5.98616598 22.08142382 -5.39648438 19.88867188 C-5.12642578 18.88513672 -4.85636719 17.88160156 -4.578125 16.84765625 C-4.34512695 15.98148682 -4.11212891 15.11531738 -3.87207031 14.22290039 C-2.58869588 9.47994802 -1.29283179 4.74038322 0 0 Z " fill="#FCFCFC" transform="translate(170,167)"/>
<path d="M0 0 C26.4 0 52.8 0 80 0 C80.16043524 27.9291009 80.16043524 27.9291009 80.1953125 39.88867188 C80.21916865 48.0302999 80.24669916 56.17174842 80.30175781 64.31323242 C80.34615527 70.88143003 80.36917789 77.44950648 80.37950897 84.01784706 C80.38686585 86.51632047 80.40123162 89.01478396 80.42292023 91.51317406 C80.5685628 108.99495511 80.54915501 125.12628741 68.2578125 138.9609375 C55.45658535 151.12475915 39.91450674 152.67925315 23.11328125 152.30859375 C12.03491104 151.81807616 3.47030235 148.03364329 -5 141 C-5.64710937 140.47664062 -6.29421875 139.95328125 -6.9609375 139.4140625 C-13.84699002 133.24969234 -18.19995474 124.00022631 -20 115 C-20 113.02 -20 111.04 -20 109 C-11.42 109 -2.84 109 6 109 C7.32 112.3 8.64 115.6 10 119 C12.89624311 123.75811368 16.64576202 126.52621268 22 128 C30.17383604 128.91669189 38.22520139 129.29186306 45.30078125 124.48046875 C50.64128757 119.82747589 52.55225709 113.79968732 53.19435501 106.91656494 C53.28268701 104.705553 53.3126079 102.50182125 53.31884766 100.2890625 C53.32889328 99.45884079 53.3389389 98.62861908 53.34928894 97.77323914 C53.37992589 95.05716581 53.39710137 92.34119015 53.4140625 89.625 C53.43278986 87.73070446 53.45236443 85.83641712 53.4727478 83.94213867 C53.52390937 78.97744602 53.56362029 74.01272637 53.60089111 69.0479126 C53.64809949 63.07969785 53.70962846 57.11161538 53.76873779 51.14350891 C53.85675513 42.09572648 53.92665897 33.04796689 54 24 C36.18 24 18.36 24 0 24 C0 16.08 0 8.16 0 0 Z " fill="#FDFDFD" transform="translate(27,167)"/>
<path d="M0 0 C35.97 0 71.94 0 109 0 C109 7.92 109 15.84 109 24 C95.47 24 81.94 24 68 24 C68 65.58 68 107.16 68 150 C59.09 150 50.18 150 41 150 C41 108.42 41 66.84 41 24 C27.47 24 13.94 24 0 24 C0 16.08 0 8.16 0 0 Z " fill="#FAFAFA" transform="translate(258,167)"/>
<path d="M0 0 C35.97 0 71.94 0 109 0 C109 7.92 109 15.84 109 24 C95.14 24 81.28 24 67 24 C67 65.58 67 107.16 67 150 C58.42 150 49.84 150 41 150 C41 108.42 41 66.84 41 24 C27.47 24 13.94 24 0 24 C0 16.08 0 8.16 0 0 Z " fill="#FDFDFD" transform="translate(383,167)"/>
<path d="M0 0 C1.65092946 2.98550281 2.4617185 5.66677123 3.078125 9.015625 C3.26640869 10.00747803 3.45469238 10.99933105 3.64868164 12.02124023 C3.8471167 13.08673096 4.04555176 14.15222168 4.25 15.25 C5.94460414 24.04952169 7.84125314 32.75578689 10.0625 41.4375 C11.92270268 48.7110948 13.73840444 55.98489619 15.375 63.3125 C15.62648804 64.42419556 15.62648804 64.42419556 15.88305664 65.55834961 C16.51807788 68.43973709 17 71.03915646 17 74 C6.11 74 -4.78 74 -16 74 C-13.75056689 61.62811791 -13.75056689 61.62811791 -12.703125 57.3359375 C-12.46948242 56.37139648 -12.23583984 55.40685547 -11.99511719 54.41308594 C-11.62628418 52.9092334 -11.62628418 52.9092334 -11.25 51.375 C-10.86183105 49.77060059 -10.86183105 49.77060059 -10.46582031 48.13378906 C-9.10472972 42.51046543 -7.72730713 36.89126961 -6.34375 31.2734375 C-2.5139002 15.76410598 -2.5139002 15.76410598 0 0 Z " fill="#222222" transform="translate(187,185)"/>
<path d="M0 0 C1.34633968 0.6399935 2.67869164 1.30980696 4 2 C6.22741958 2.30702164 6.22741958 2.30702164 8.61907959 2.2784729 C9.54172104 2.28963638 10.46436249 2.30079987 11.41496277 2.31230164 C12.92223686 2.31554192 12.92223686 2.31554192 14.45996094 2.31884766 C16.05554588 2.33391609 16.05554588 2.33391609 17.68336487 2.34928894 C21.20036273 2.38018689 24.71728425 2.39717466 28.234375 2.4140625 C30.67247172 2.4327688 33.11056193 2.45234181 35.54864502 2.4727478 C41.96669685 2.52413167 48.38476968 2.56372403 54.80291748 2.60089111 C61.3517377 2.64089148 67.90047007 2.69200193 74.44921875 2.7421875 C87.2994164 2.83902089 100.1496644 2.92377924 113 3 C113 3.99 113 4.98 113 6 C112.16924344 6.00496522 112.16924344 6.00496522 111.32170391 6.01003075 C97.85140628 6.09121814 84.38122296 6.18342232 70.91108227 6.28752708 C64.39704213 6.33753689 57.88301858 6.38386653 51.36889648 6.421875 C45.0859424 6.45866857 38.80312558 6.50501236 32.52028847 6.55806351 C30.11966668 6.57663901 27.71901543 6.59173521 25.31834984 6.60334396 C21.96363554 6.62015234 18.60923777 6.64917447 15.25463867 6.68115234 C13.75599777 6.68439262 13.75599777 6.68439262 12.2270813 6.68769836 C11.31422867 6.69886185 10.40137604 6.71002533 9.46086121 6.7215271 C8.66719745 6.72705786 7.87353369 6.73258862 7.05581951 6.73828697 C4.69127745 6.88429296 4.69127745 6.88429296 2 9 C-1.83460949 8.58914898 -5.50733128 6.54483424 -9 5 C-6.02980547 3.01987031 -3.30702837 1.3498075 0 0 Z " fill="#B8AF9B" transform="translate(115,369)"/>
<path d="M0 0 C1.34633968 0.6399935 2.67869164 1.30980696 4 2 C6.22741958 2.30702164 6.22741958 2.30702164 8.61907959 2.2784729 C9.54172104 2.28963638 10.46436249 2.30079987 11.41496277 2.31230164 C12.92223686 2.31554192 12.92223686 2.31554192 14.45996094 2.31884766 C16.05554588 2.33391609 16.05554588 2.33391609 17.68336487 2.34928894 C21.20036273 2.38018689 24.71728425 2.39717466 28.234375 2.4140625 C30.67247172 2.4327688 33.11056193 2.45234181 35.54864502 2.4727478 C41.96669685 2.52413167 48.38476968 2.56372403 54.80291748 2.60089111 C61.3517377 2.64089148 67.90047007 2.69200193 74.44921875 2.7421875 C87.2994164 2.83902089 100.1496644 2.92377924 113 3 C113 3.99 113 4.98 113 6 C112.16924344 6.00496522 112.16924344 6.00496522 111.32170391 6.01003075 C97.85140628 6.09121814 84.38122296 6.18342232 70.91108227 6.28752708 C64.39704213 6.33753689 57.88301858 6.38386653 51.36889648 6.421875 C45.0859424 6.45866857 38.80312558 6.50501236 32.52028847 6.55806351 C30.11966668 6.57663901 27.71901543 6.59173521 25.31834984 6.60334396 C21.96363554 6.62015234 18.60923777 6.64917447 15.25463867 6.68115234 C13.75599777 6.68439262 13.75599777 6.68439262 12.2270813 6.68769836 C11.31422867 6.69886185 10.40137604 6.71002533 9.46086121 6.7215271 C8.66719745 6.72705786 7.87353369 6.73258862 7.05581951 6.73828697 C4.69127745 6.88429296 4.69127745 6.88429296 2 9 C-1.83460949 8.58914898 -5.50733128 6.54483424 -9 5 C-6.02980547 3.01987031 -3.30702837 1.3498075 0 0 Z " fill="#B8AF9B" transform="translate(115,102)"/>
<path d="M0 0 C0.98397585 2.5607445 1.96229967 5.12341492 2.9375 7.6875 C3.35418945 8.7693457 3.35418945 8.7693457 3.77929688 9.87304688 C7.53604226 19.78542324 7.53604226 19.78542324 6.07421875 23.09765625 C5.61660156 23.74605469 5.15898437 24.39445312 4.6875 25.0625 C2.90225413 27.64573543 1.34750787 30.15947872 0 33 C-1.03450491 31.69325696 -2.02172071 30.34935074 -3 29 C-3.45632812 28.39414062 -3.91265625 27.78828125 -4.3828125 27.1640625 C-4.85460937 26.49117188 -5.32640625 25.81828125 -5.8125 25.125 C-6.27269531 24.48820312 -6.73289063 23.85140625 -7.20703125 23.1953125 C-8.37995529 19.94810406 -7.2719859 18.14669743 -6 15 C-5.64679688 13.94039063 -5.29359375 12.88078125 -4.9296875 11.7890625 C-3.953125 8.859375 -2.9765625 5.9296875 -2 3 C-2.24492187 3.69867188 -2.48984375 4.39734375 -2.7421875 5.1171875 C-5.75917594 12.46199384 -5.75917594 12.46199384 -9.55859375 14.109375 C-12.05734972 14.57722718 -14.46141281 14.8915555 -17 15 C-16.4083145 11.43628505 -15.63514636 8.23474606 -14 5 C-11.17989778 2.99080629 -8.29464085 1.99401878 -5 1 C-3 0 -3 0 0 0 Z " fill="#C7BEA8" transform="translate(250,366)"/>
<path d="M0 0 C3.33333333 1.33333333 6.66666667 2.66666667 10 4 C7.45287926 6.00130916 5.0472625 7.85727656 2 9 C-0.0625 8.6875 -0.0625 8.6875 -2 8 C-4.78809895 7.07063368 -6.50190768 6.86566467 -9.38493347 6.84178162 C-10.28095779 6.8319928 -11.17698212 6.82220398 -12.10015869 6.81211853 C-13.57074738 6.80348534 -13.57074738 6.80348534 -15.07104492 6.79467773 C-16.10536148 6.78477814 -17.13967804 6.77487854 -18.20533752 6.76467896 C-21.63035784 6.73304538 -25.05539203 6.70829909 -28.48046875 6.68359375 C-30.85273096 6.66302583 -33.22498949 6.64202941 -35.59724426 6.62062073 C-41.8459882 6.56538332 -48.0947653 6.51598135 -54.34356689 6.46777344 C-60.71800697 6.41757064 -67.09239879 6.36187819 -73.46679688 6.30664062 C-85.9778231 6.19903861 -98.4888905 6.09741179 -111 6 C-111 5.34 -111 4.68 -111 4 C-109.0931971 3.9845388 -109.0931971 3.9845388 -107.14787292 3.96876526 C-95.1845323 3.87112895 -83.22124483 3.76840417 -71.25799084 3.66066074 C-65.10715226 3.60542962 -58.95630893 3.55200924 -52.80541992 3.50268555 C-46.87263593 3.45504489 -40.93991057 3.40270208 -35.00719643 3.34705925 C-32.74053718 3.32663436 -30.47386186 3.30792151 -28.2071743 3.29092598 C-25.03934272 3.26688505 -21.87162228 3.23682988 -18.70385742 3.20532227 C-17.76086792 3.1995668 -16.81787842 3.19381134 -15.84631348 3.18788147 C-14.98394577 3.17809265 -14.12157806 3.16830383 -13.233078 3.15821838 C-12.10895146 3.14853956 -12.10895146 3.14853956 -10.96211529 3.1386652 C-8.78527639 3.06651611 -8.78527639 3.06651611 -6 2 C-5.13375 1.835 -4.2675 1.67 -3.375 1.5 C-1.05538548 1.23747474 -1.05538548 1.23747474 0 0 Z " fill="#B3AA97" transform="translate(383,369)"/>
<path d="M0 0 C3.33333333 1.33333333 6.66666667 2.66666667 10 4 C7.45287926 6.00130916 5.0472625 7.85727656 2 9 C-0.0625 8.6875 -0.0625 8.6875 -2 8 C-4.78809895 7.07063368 -6.50190768 6.86566467 -9.38493347 6.84178162 C-10.28095779 6.8319928 -11.17698212 6.82220398 -12.10015869 6.81211853 C-13.57074738 6.80348534 -13.57074738 6.80348534 -15.07104492 6.79467773 C-16.10536148 6.78477814 -17.13967804 6.77487854 -18.20533752 6.76467896 C-21.63035784 6.73304538 -25.05539203 6.70829909 -28.48046875 6.68359375 C-30.85273096 6.66302583 -33.22498949 6.64202941 -35.59724426 6.62062073 C-41.8459882 6.56538332 -48.0947653 6.51598135 -54.34356689 6.46777344 C-60.71800697 6.41757064 -67.09239879 6.36187819 -73.46679688 6.30664062 C-85.9778231 6.19903861 -98.4888905 6.09741179 -111 6 C-111 5.34 -111 4.68 -111 4 C-109.0931971 3.9845388 -109.0931971 3.9845388 -107.14787292 3.96876526 C-95.1845323 3.87112895 -83.22124483 3.76840417 -71.25799084 3.66066074 C-65.10715226 3.60542962 -58.95630893 3.55200924 -52.80541992 3.50268555 C-46.87263593 3.45504489 -40.93991057 3.40270208 -35.00719643 3.34705925 C-32.74053718 3.32663436 -30.47386186 3.30792151 -28.2071743 3.29092598 C-25.03934272 3.26688505 -21.87162228 3.23682988 -18.70385742 3.20532227 C-17.76086792 3.1995668 -16.81787842 3.19381134 -15.84631348 3.18788147 C-14.98394577 3.17809265 -14.12157806 3.16830383 -13.233078 3.15821838 C-12.10895146 3.14853956 -12.10895146 3.14853956 -10.96211529 3.1386652 C-8.78527639 3.06651611 -8.78527639 3.06651611 -6 2 C-5.13375 1.835 -4.2675 1.67 -3.375 1.5 C-1.05538548 1.23747474 -1.05538548 1.23747474 0 0 Z " fill="#B3AA97" transform="translate(383,102)"/>
<path d="M0 0 C2.75908759 1.37954379 3.21482985 3.06486205 4.5625 5.8125 C4.99691406 6.68519531 5.43132812 7.55789062 5.87890625 8.45703125 C8.32454482 14.00445533 8.32454482 14.00445533 7.07421875 17.83984375 C6.61660156 18.86207031 6.15898437 19.88429688 5.6875 20.9375 C5.01267578 22.46697266 5.01267578 22.46697266 4.32421875 24.02734375 C3.88722656 25.00832031 3.45023438 25.98929688 3 27 C2.3251696 28.66337794 1.65550907 30.3289135 1 32 C-0.70189768 28.71494168 -2.14432232 25.35382654 -3.5625 21.9375 C-3.99691406 20.89464844 -4.43132812 19.85179687 -4.87890625 18.77734375 C-5.64679605 16.87501048 -6.35126842 14.94619474 -7 13 C-6.07421875 11.1328125 -6.07421875 11.1328125 -4.6875 9.125 C-2.71870876 6.1608754 -1.164047 3.38631853 0 0 Z " fill="#C8BEA9" transform="translate(249,81)"/>
<path d="M0 0 C1.34633968 0.6399935 2.67869164 1.30980696 4 2 C6.22741958 2.30702164 6.22741958 2.30702164 8.61907959 2.2784729 C9.54172104 2.28963638 10.46436249 2.30079987 11.41496277 2.31230164 C12.92223686 2.31554192 12.92223686 2.31554192 14.45996094 2.31884766 C16.05554588 2.33391609 16.05554588 2.33391609 17.68336487 2.34928894 C21.20036273 2.38018689 24.71728425 2.39717466 28.234375 2.4140625 C30.67247172 2.4327688 33.11056193 2.45234181 35.54864502 2.4727478 C41.96669685 2.52413167 48.38476968 2.56372403 54.80291748 2.60089111 C61.3517377 2.64089148 67.90047007 2.69200193 74.44921875 2.7421875 C87.2994164 2.83902089 100.1496644 2.92377924 113 3 C113 3.33 113 3.66 113 4 C79.34 4 45.68 4 11 4 C11 4.99 11 5.98 11 7 C10.071875 6.95875 9.14375 6.9175 8.1875 6.875 C4.84190281 6.72863661 4.84190281 6.72863661 2 9 C-1.83460949 8.58914898 -5.50733128 6.54483424 -9 5 C-6.02980547 3.01987031 -3.30702837 1.3498075 0 0 Z " fill="#494741" transform="translate(115,369)"/>
<path d="M0 0 C1.34633968 0.6399935 2.67869164 1.30980696 4 2 C6.22741958 2.30702164 6.22741958 2.30702164 8.61907959 2.2784729 C9.54172104 2.28963638 10.46436249 2.30079987 11.41496277 2.31230164 C12.92223686 2.31554192 12.92223686 2.31554192 14.45996094 2.31884766 C16.05554588 2.33391609 16.05554588 2.33391609 17.68336487 2.34928894 C21.20036273 2.38018689 24.71728425 2.39717466 28.234375 2.4140625 C30.67247172 2.4327688 33.11056193 2.45234181 35.54864502 2.4727478 C41.96669685 2.52413167 48.38476968 2.56372403 54.80291748 2.60089111 C61.3517377 2.64089148 67.90047007 2.69200193 74.44921875 2.7421875 C87.2994164 2.83902089 100.1496644 2.92377924 113 3 C113 3.33 113 3.66 113 4 C79.34 4 45.68 4 11 4 C11 4.99 11 5.98 11 7 C10.071875 6.95875 9.14375 6.9175 8.1875 6.875 C4.84190281 6.72863661 4.84190281 6.72863661 2 9 C-1.83460949 8.58914898 -5.50733128 6.54483424 -9 5 C-6.02980547 3.01987031 -3.30702837 1.3498075 0 0 Z " fill="#494741" transform="translate(115,102)"/>
<path d="M0 0 C-1 2 -1 2 -2.9375 4.8125 C-5.11510582 7.77758673 -5.11510582 7.77758673 -5.625 10.75 C-7 13 -7 13 -9.34375 13.75390625 C-11.89194459 14.26569252 -14.4210416 14.68119887 -17 15 C-16.4083145 11.43628505 -15.63514636 8.23474606 -14 5 C-11.17989778 2.99080629 -8.29464085 1.99401878 -5 1 C-3 0 -3 0 0 0 Z " fill="#BFB6A1" transform="translate(250,366)"/>
<path d="M0 0 C11.94529148 3.23766816 11.94529148 3.23766816 14.53125 7.55859375 C15.23996208 10.05680382 15.74429103 12.41784083 16 15 C12.13866931 14.79361853 8.62937071 14.37539553 5 13 C1.98078449 9.19995289 1.12164461 4.63472017 0 0 Z " fill="#C1B8A3" transform="translate(251,366)"/>
<path d="M0 0 C-0.09381826 3.31250634 -0.51190777 6.01883864 -2 9 C-5.42141059 11.37849227 -8.97781107 12.91996779 -13 14 C-13.66 13.67 -14.32 13.34 -15 13 C-13.60523393 9.15635893 -12.12436887 5.50176514 -10 2 C-6.30302269 0.27899332 -4.01621932 0 0 0 Z " fill="#C4BAA5" transform="translate(266,100)"/>
<path d="M0 0 C4.77402641 0.72305643 8.76250375 1.39178828 11.8125 5.35546875 C13.10020253 7.8906331 14.2254148 10.26313228 15 13 C14.67 13.66 14.34 14.32 14 15 C10.00950417 14.15312058 6.49434626 13.13886976 3 11 C1.16319197 7.43412966 0.47166659 3.96473369 0 0 Z " fill="#C4BBA6" transform="translate(233,99)"/>
<path d="M0 0 C0.66 0.391875 1.32 0.78375 2 1.1875 C5.16695956 1.35474737 5.16695956 1.35474737 8 1.1875 C8 1.8475 8 2.5075 8 3.1875 C7.01 3.6825 7.01 3.6825 6 4.1875 C6.66 4.8475 7.32 5.5075 8 6.1875 C6.39125 6.4040625 6.39125 6.4040625 4.75 6.625 C1.2575129 7.03895366 1.2575129 7.03895366 -0.96875 7.84375 C-3.66814941 8.30057144 -4.87870757 7.55421083 -7.25 6.25 C-7.95640625 5.86972656 -8.6628125 5.48945313 -9.390625 5.09765625 C-9.92171875 4.79730469 -10.4528125 4.49695313 -11 4.1875 C-2.93203883 -1.19114078 -2.93203883 -1.19114078 0 0 Z " fill="#BCB39F" transform="translate(117,369.8125)"/>
<path d="M0 0 C0.66 0.391875 1.32 0.78375 2 1.1875 C5.16695956 1.35474737 5.16695956 1.35474737 8 1.1875 C8 1.8475 8 2.5075 8 3.1875 C7.01 3.6825 7.01 3.6825 6 4.1875 C6.66 4.8475 7.32 5.5075 8 6.1875 C6.39125 6.4040625 6.39125 6.4040625 4.75 6.625 C1.2575129 7.03895366 1.2575129 7.03895366 -0.96875 7.84375 C-3.66814941 8.30057144 -4.87870757 7.55421083 -7.25 6.25 C-7.95640625 5.86972656 -8.6628125 5.48945312 -9.390625 5.09765625 C-9.92171875 4.79730469 -10.4528125 4.49695313 -11 4.1875 C-2.93203883 -1.19114078 -2.93203883 -1.19114078 0 0 Z " fill="#BCB39F" transform="translate(117,102.8125)"/>
<path d="M0 0 C2.375 0.75 2.375 0.75 5 2 C5.928125 2.37125 6.85625 2.7425 7.8125 3.125 C8.534375 3.41375 9.25625 3.7025 10 4 C7.45287926 6.00130916 5.0472625 7.85727656 2 9 C-0.0625 8.6875 -0.0625 8.6875 -2 8 C-2.99 7.67 -3.98 7.34 -5 7 C-5.99 6.67 -6.98 6.34 -8 6 C-7.360625 5.896875 -6.72125 5.79375 -6.0625 5.6875 C-5.381875 5.460625 -4.70125 5.23375 -4 5 C-3.67 4.01 -3.34 3.02 -3 2 C-2.01 1.34 -1.02 0.68 0 0 Z " fill="#C3B9A5" transform="translate(383,369)"/>
<path d="M0 0 C2.375 0.75 2.375 0.75 5 2 C5.928125 2.37125 6.85625 2.7425 7.8125 3.125 C8.534375 3.41375 9.25625 3.7025 10 4 C7.45287926 6.00130916 5.0472625 7.85727656 2 9 C-0.0625 8.6875 -0.0625 8.6875 -2 8 C-2.99 7.67 -3.98 7.34 -5 7 C-5.99 6.67 -6.98 6.34 -8 6 C-7.360625 5.896875 -6.72125 5.79375 -6.0625 5.6875 C-5.381875 5.460625 -4.70125 5.23375 -4 5 C-3.67 4.01 -3.34 3.02 -3 2 C-2.01 1.34 -1.02 0.68 0 0 Z " fill="#C3B9A5" transform="translate(383,102)"/>
<path d="M0 0 C0.66 0 1.32 0 2 0 C2.83790789 1.78953185 3.67019396 3.58169695 4.5 5.375 C4.9640625 6.37273437 5.428125 7.37046875 5.90625 8.3984375 C7 11 7 11 7 13 C6.01 13 5.02 13 4 13 C2.68 8.71 1.36 4.42 0 0 Z " fill="#383633" transform="translate(249,365)"/>
<path d="M0 0 C0.66 0.99 1.32 1.98 2 3 C2.99387334 4.33790641 3.9926892 5.67218122 5 7 C4.67 7.66 4.34 8.32 4 9 C3.01 9 2.02 9 1 9 C-1.125 2.25 -1.125 2.25 0 0 Z " fill="#5B5850" transform="translate(247,106)"/>
<path d="M0 0 C1.25541557 3.76624671 0.37061958 5.37188934 -1 9 C-1.99 9 -2.98 9 -4 9 C-2.94124926 5.59687262 -1.99097846 2.98646769 0 0 Z " fill="#33312F" transform="translate(248,367)"/>
<path d="M0 0 C0.33 0.99 0.66 1.98 1 3 C-0.4375 5.6875 -0.4375 5.6875 -2 8 C-2.93423645 4.98968256 -3.04449911 4.13349732 -2 1 C-1.34 0.67 -0.68 0.34 0 0 Z " fill="#302F2D" transform="translate(254,104)"/>
</svg>
